<?xml version="1.0" standalone="no"?>
<!DOCTYPE svg PUBLIC "-//W3C//DTD SVG 20010904//EN"
 "http://www.w3.org/TR/2001/REC-SVG-20010904/DTD/svg10.dtd">
<svg version="1.0" xmlns="http://www.w3.org/2000/svg"
 width="739.000000pt" height="500.000000pt" viewBox="0 0 739.000000 500.000000"
 preserveAspectRatio="xMidYMid meet">
<metadata>
Created by potrace 1.16, written by Peter Selinger 2001-2019
</metadata>
<g transform="translate(0.000000,500.000000) scale(0.100000,-0.100000)"
fill="#C4C4C4" stroke="none">
<path d="M1010 4546 c0 -4 -15 -6 -34 -4 -19 2 -33 1 -30 -3 5 -9 -56 -20 -69
-12 -5 3 -7 1 -4 -4 4 -6 -5 -14 -21 -18 -44 -11 -142 -57 -142 -67 0 -5 -5
-8 -12 -6 -6 2 -24 -9 -40 -24 -16 -16 -33 -26 -39 -23 -5 4 -9 0 -9 -8 0 -16
-47 -61 -73 -70 -10 -4 -16 -11 -13 -16 7 -11 -28 -43 -37 -34 -4 3 -7 -4 -7
-16 0 -14 -4 -20 -12 -15 -7 5 -8 3 -3 -6 5 -8 -3 -21 -21 -37 -16 -13 -23
-22 -16 -18 17 9 15 -10 -3 -28 -8 -8 -11 -17 -8 -21 4 -3 -2 -6 -13 -7 -10 0
-14 -3 -7 -5 8 -4 5 -19 -12 -52 -13 -25 -21 -50 -18 -55 2 -4 0 -14 -7 -22
-6 -7 -13 -49 -16 -92 -3 -43 -7 -83 -9 -90 -8 -23 16 -208 31 -241 8 -17 17
-45 19 -61 4 -32 30 -88 51 -109 8 -7 14 -22 14 -33 0 -11 4 -17 10 -14 5 3
10 0 10 -8 0 -8 7 -18 16 -21 9 -4 14 -13 10 -21 -3 -8 -1 -14 4 -12 5 1 26
-16 47 -38 57 -60 121 -115 133 -115 5 0 10 -4 10 -9 0 -5 10 -13 23 -17 12
-4 24 -10 27 -14 8 -12 121 -57 163 -65 20 -4 37 -10 37 -14 0 -3 30 -7 68 -9
37 -2 68 -6 70 -11 4 -12 198 16 277 40 70 21 187 76 193 91 2 4 8 8 14 8 10
0 165 152 205 201 11 15 24 36 28 48 3 12 10 21 14 21 12 0 43 59 36 70 -3 6
-1 10 5 10 6 0 8 5 5 11 -4 6 1 17 11 25 11 9 13 13 7 9 -7 -3 -13 -1 -13 4 0
6 4 11 9 11 5 0 7 10 3 22 -3 13 -1 19 5 15 6 -4 14 0 17 9 4 10 2 13 -6 8 -8
-5 -9 0 -5 17 4 13 7 37 7 52 0 16 3 26 8 24 4 -3 3 52 -2 121 -4 70 -9 137
-10 150 0 12 -4 22 -8 22 -5 0 -8 7 -8 16 0 8 4 12 10 9 6 -3 7 1 4 9 -3 9
-10 13 -15 10 -9 -5 -11 0 -13 29 -1 6 -3 14 -6 17 -3 3 -16 30 -30 60 -14 30
-27 57 -30 60 -3 3 -26 32 -52 65 -41 54 -88 102 -159 160 -13 11 -60 38 -104
60 -44 22 -82 42 -85 45 -3 3 -9 5 -15 5 -32 1 -94 18 -91 24 3 4 -9 6 -27 4
-27 -2 -28 -1 -8 5 14 4 -33 7 -107 7 -73 0 -132 -4 -132 -9z"/>
<path d="M3615 4550 c6 -10 -1 -12 -35 -7 -31 4 -40 3 -29 -4 10 -8 7 -9 -13
-6 -17 2 -25 0 -21 -6 4 -6 -2 -8 -15 -5 -12 4 -22 2 -22 -2 0 -8 -58 -26 -72
-22 -5 1 -8 -3 -8 -9 0 -5 -4 -8 -9 -5 -5 4 -11 2 -13 -3 -1 -5 -10 -11 -18
-13 -8 -2 -23 -11 -34 -20 -10 -10 -23 -15 -28 -12 -4 3 -11 -2 -14 -10 -3 -9
-12 -16 -19 -16 -7 0 -15 -7 -19 -15 -3 -8 -9 -14 -13 -13 -4 2 -10 -1 -13 -7
-2 -5 -22 -25 -45 -44 -22 -18 -43 -42 -47 -52 -4 -11 -14 -22 -23 -25 -8 -4
-15 -11 -15 -18 0 -6 -11 -23 -25 -38 -14 -15 -25 -29 -24 -30 1 -2 -7 -21
-18 -43 -11 -22 -28 -65 -39 -95 -10 -30 -21 -57 -24 -60 -3 -3 -5 -13 -6 -22
0 -10 -1 -34 -2 -54 -1 -19 -5 -33 -9 -31 -5 3 -8 -39 -8 -93 0 -54 3 -96 8
-93 6 4 11 -34 10 -89 0 -10 4 -18 8 -18 3 0 11 -19 17 -43 6 -23 21 -64 32
-90 11 -25 20 -50 19 -53 0 -4 6 -11 15 -16 9 -5 14 -13 11 -18 -3 -4 2 -11
11 -14 8 -3 12 -10 9 -16 -3 -5 -1 -10 5 -10 16 0 55 -50 55 -70 0 -8 7 -15
15 -15 8 -1 14 -7 12 -14 -1 -7 2 -10 6 -7 11 7 41 -24 39 -39 -1 -5 5 -10 13
-11 25 -1 50 -15 50 -29 0 -8 5 -17 12 -21 7 -5 9 -2 4 7 -4 8 0 5 8 -5 9 -11
16 -16 16 -11 0 5 7 0 16 -11 8 -10 13 -13 9 -6 -3 6 -1 12 4 12 6 0 11 -4 11
-9 0 -10 138 -65 190 -76 68 -15 235 -32 240 -25 3 4 31 10 62 14 32 3 91 17
132 30 41 13 78 21 81 18 3 -3 5 0 5 7 0 7 5 9 10 6 6 -3 10 -1 10 5 0 6 5 8
10 5 6 -3 10 1 10 10 0 10 6 15 13 12 8 -3 20 3 28 14 7 10 17 19 22 19 5 0
15 7 24 15 8 8 20 12 26 8 7 -3 9 -3 5 2 -8 9 32 42 45 37 5 -1 6 2 3 6 -6 10
32 49 43 45 3 -2 7 2 7 7 1 6 2 15 3 20 0 6 8 10 16 10 8 0 14 3 14 8 -3 20 2
32 16 32 8 0 15 3 14 8 -3 19 15 52 28 52 8 0 11 5 8 10 -3 6 -3 10 2 10 9 0
20 30 60 155 19 60 26 108 29 190 4 128 -11 217 -54 328 -16 43 -27 77 -24 77
3 0 -3 7 -14 15 -10 8 -16 15 -12 15 5 0 -2 12 -15 26 -12 14 -21 28 -19 30 1
2 -13 18 -30 35 -18 18 -25 26 -15 19 9 -7 17 -10 17 -7 0 4 -25 25 -55 48
-30 23 -55 48 -55 56 0 8 -4 12 -9 8 -5 -3 -17 5 -25 17 -9 12 -16 18 -16 13
0 -6 -7 -1 -15 9 -8 11 -15 16 -15 12 0 -9 -72 33 -82 48 -4 6 -8 8 -8 4 0 -3
-30 5 -67 18 -38 13 -76 24 -86 24 -10 0 -16 3 -14 8 3 4 -56 9 -131 10 -76 2
-141 6 -146 10 -5 3 -6 -1 -1 -8z"/>
<path d="M6218 4548 c-2 -4 -23 -8 -48 -10 -25 -2 -48 -7 -51 -11 -4 -5 -18
-10 -33 -10 -14 -1 -26 -4 -26 -7 0 -3 -27 -16 -60 -29 -33 -13 -65 -30 -71
-38 -6 -7 -18 -13 -25 -13 -8 0 -14 -4 -14 -10 0 -5 -6 -10 -14 -10 -8 0 -17
-7 -20 -16 -4 -9 -13 -14 -21 -10 -9 3 -15 0 -15 -7 0 -16 -52 -67 -68 -67 -7
0 -12 -5 -12 -12 0 -6 -18 -34 -39 -62 -22 -28 -45 -63 -52 -78 -6 -15 -16
-25 -20 -22 -5 3 -6 -3 -2 -12 3 -10 2 -15 -3 -12 -5 4 -10 -5 -11 -20 0 -14
-8 -29 -17 -34 -11 -6 -15 -16 -11 -29 4 -10 2 -19 -3 -19 -6 0 -8 -9 -5 -20
3 -11 0 -20 -6 -20 -5 0 -8 -7 -4 -15 3 -9 -3 -23 -13 -31 -11 -9 -14 -13 -9
-11 7 4 10 -38 10 -121 0 -146 6 -222 19 -222 4 0 6 -9 3 -20 -3 -11 -1 -20 4
-20 5 0 9 -5 9 -11 0 -5 -4 -7 -10 -4 -6 3 -7 -1 -4 -9 3 -9 11 -13 16 -10 6
4 8 -1 4 -14 -5 -14 0 -28 13 -41 12 -12 21 -24 21 -28 -1 -5 6 -17 14 -28 8
-11 16 -24 18 -30 6 -25 208 -235 226 -235 6 0 18 -8 28 -17 10 -10 20 -18 23
-19 19 -2 111 -49 111 -56 0 -5 3 -7 8 -5 4 3 39 -3 77 -14 39 -10 89 -18 113
-18 23 -1 42 -5 42 -9 0 -5 20 -6 45 -2 25 4 48 3 51 -2 3 -4 10 -8 15 -8 6 0
7 5 4 10 -5 9 26 14 88 13 9 0 17 4 17 8 0 4 17 10 37 14 48 9 163 55 163 65
0 4 11 11 25 14 14 4 25 11 25 16 0 6 4 10 9 10 11 0 79 58 130 110 19 19 39
34 45 32 6 -2 8 0 4 3 -10 11 11 47 23 40 5 -4 9 -3 8 2 -4 21 2 33 15 33 8 0
18 5 22 12 4 7 3 8 -4 4 -7 -4 -12 -2 -12 3 0 6 6 11 13 11 12 0 43 74 39 93
-1 4 2 7 8 7 5 0 7 7 4 15 -4 8 -1 15 5 15 6 0 8 7 5 15 -4 8 -1 15 6 15 6 0
8 5 5 10 -4 6 -3 16 2 23 5 7 10 26 11 44 1 18 6 41 10 52 4 11 4 75 0 143 -9
139 -11 152 -27 192 -6 16 -13 36 -14 45 -2 9 -15 40 -30 68 -15 29 -26 56
-25 60 2 5 -10 20 -25 36 -16 15 -25 32 -21 39 4 7 3 8 -4 4 -7 -4 -12 -3 -12
2 0 5 -30 40 -67 77 -38 37 -66 69 -65 72 2 3 0 8 -4 11 -4 4 -4 1 0 -5 4 -7
2 -13 -3 -13 -6 0 -11 6 -11 14 0 8 -5 18 -12 22 -7 4 -8 3 -4 -5 4 -6 -8 -2
-26 9 -53 32 -118 61 -191 85 -37 12 -65 24 -62 26 2 3 -11 3 -30 1 -19 -2
-35 0 -35 4 0 11 -219 12 -222 2z"/>
<path d="M1214 1952 c7 -11 -12 -13 -103 -10 -61 1 -111 0 -111 -3 0 -4 -17
-9 -37 -13 -21 -3 -49 -9 -62 -13 -19 -5 -22 -3 -17 8 4 8 1 6 -8 -5 -8 -10
-20 -15 -27 -10 -7 4 -10 3 -6 -3 4 -6 -1 -13 -11 -16 -9 -2 -26 -8 -36 -13
-15 -6 -18 -4 -12 7 6 11 4 10 -6 -1 -7 -8 -19 -15 -25 -16 -31 -2 -36 -4 -30
-11 4 -3 -17 -23 -45 -42 -52 -35 -120 -92 -142 -119 -6 -8 -22 -26 -36 -40
-14 -15 -25 -30 -25 -34 0 -4 -9 -18 -20 -30 -11 -13 -19 -26 -17 -30 1 -5 -3
-8 -10 -8 -6 0 -9 -3 -5 -6 9 -9 -21 -77 -37 -86 -8 -4 -11 -18 -8 -33 3 -19
0 -25 -14 -26 -11 0 -14 -3 -6 -6 6 -2 10 -9 6 -14 -21 -35 -38 -275 -22 -329
4 -14 10 -41 13 -60 7 -40 8 -46 22 -80 6 -14 13 -41 17 -60 3 -19 17 -48 31
-64 14 -16 25 -38 25 -48 0 -11 5 -16 10 -13 6 3 10 1 10 -6 0 -12 192 -209
207 -212 4 -1 7 -5 6 -9 -2 -4 5 -4 14 -1 10 4 14 2 10 -4 -4 -6 5 -13 22 -16
16 -3 35 -12 42 -19 8 -7 23 -15 34 -16 11 -2 21 -8 23 -12 2 -5 10 -6 18 -3
8 3 14 0 14 -7 0 -7 6 -10 14 -7 8 3 17 3 20 -1 4 -3 12 -7 19 -8 7 -2 21 -5
32 -7 82 -18 197 -24 255 -13 19 4 49 8 65 9 17 2 36 7 43 11 7 4 16 5 21 1 5
-3 12 -1 16 5 4 6 10 8 15 5 5 -3 11 -1 15 5 4 6 11 7 17 4 6 -4 13 -2 17 3 7
12 87 54 98 52 23 -4 38 4 66 34 17 17 27 25 23 17 -5 -9 -2 -8 7 2 8 10 17
14 21 10 4 -4 6 -2 4 4 -2 6 23 39 55 74 31 34 57 66 57 70 0 4 10 10 22 13
12 4 19 9 15 13 -4 4 1 13 11 21 11 10 12 12 2 8 -13 -6 -13 -5 0 7 8 7 16 20
18 28 2 8 8 17 13 18 5 2 7 8 3 13 -3 5 0 9 6 9 6 0 9 4 6 9 -3 5 1 11 9 15 8
3 15 11 15 18 0 9 -3 9 -11 -2 -9 -12 -10 -12 -5 3 3 11 9 30 12 44 5 19 9 22
16 11 5 -8 6 -3 2 15 -3 15 -2 27 3 27 5 0 10 24 11 53 1 28 6 53 11 55 4 1 7
13 5 25 -2 12 -5 66 -8 120 -3 72 -1 96 7 91 7 -3 4 1 -7 10 -10 8 -16 22 -13
30 3 8 1 16 -4 18 -6 2 -11 20 -12 40 -1 20 -6 33 -11 30 -5 -3 -7 5 -4 16 4
14 2 20 -5 15 -7 -4 -8 0 -4 11 5 11 3 15 -5 10 -8 -5 -9 -2 -5 10 4 9 3 15
-2 12 -4 -3 -14 7 -20 22 -14 32 -59 99 -83 126 -10 10 -15 23 -12 28 3 4 -3
11 -13 15 -10 4 -45 31 -78 61 -33 30 -74 61 -92 70 -18 8 -30 19 -27 24 3 4
-3 5 -12 1 -13 -5 -15 -3 -9 7 5 8 4 11 -3 7 -14 -9 -43 3 -36 14 3 5 -3 6
-12 2 -10 -3 -15 -2 -12 3 3 5 -7 10 -24 10 -17 1 -33 5 -37 10 -3 5 -10 9
-16 9 -38 2 -103 20 -119 34 -12 9 -16 10 -12 3z"/>
<path d="M3610 1938 c0 -6 -94 -23 -117 -21 -7 0 -13 -4 -13 -9 0 -6 -7 -8
-15 -4 -8 3 -15 2 -15 -3 0 -10 -44 -24 -88 -29 -7 -1 -11 -6 -8 -11 8 -12
-22 -23 -37 -14 -7 3 -9 3 -5 -2 5 -5 -4 -16 -20 -25 -15 -9 -52 -39 -82 -66
-30 -27 -64 -54 -75 -60 -11 -7 -19 -19 -17 -27 1 -9 -7 -21 -18 -27 -11 -6
-18 -15 -15 -20 3 -5 -1 -12 -8 -17 -19 -11 -95 -166 -103 -209 -3 -19 -10
-34 -14 -34 -5 0 -6 -9 -3 -20 3 -12 0 -20 -6 -20 -7 0 -10 -4 -7 -8 2 -4 2
-61 -2 -125 -4 -64 -4 -117 -1 -117 3 0 9 -20 12 -45 10 -67 66 -230 88 -254
10 -11 19 -25 19 -31 0 -5 5 -10 10 -10 6 0 10 -6 10 -14 0 -8 4 -16 9 -18 5
-2 24 -22 44 -45 19 -23 56 -61 83 -84 27 -23 48 -47 46 -52 -1 -4 1 -6 6 -3
5 3 20 -2 33 -12 22 -15 134 -73 152 -77 4 -2 9 -4 12 -5 3 -1 10 -4 15 -5 6
-1 13 -4 18 -5 4 -1 11 -2 16 -1 4 1 14 -3 21 -9 7 -6 17 -10 21 -8 5 1 38 -2
74 -6 85 -11 133 -11 200 0 30 4 59 7 64 6 4 -2 14 2 22 9 7 6 17 8 22 5 5 -3
20 1 35 9 15 8 27 11 27 7 0 -4 4 -1 9 6 4 7 18 14 29 15 12 1 22 5 22 10 0 4
5 5 10 2 6 -3 10 0 10 7 0 9 3 9 10 -2 8 -13 10 -12 10 3 0 11 8 17 24 17 14
0 28 4 31 10 4 6 -1 7 -12 4 -10 -3 0 5 22 19 22 14 44 23 49 20 5 -4 6 -1 3
4 -6 10 58 68 75 68 3 0 10 4 15 9 5 5 3 6 -4 2 -22 -13 -14 12 10 31 13 10
26 26 30 36 3 9 11 17 17 17 5 0 10 7 10 15 0 8 7 15 15 15 9 0 12 6 9 15 -4
8 -2 15 3 15 21 0 88 178 99 261 4 27 10 49 15 49 5 0 7 6 4 13 -2 6 -6 59 -9
117 -3 58 -12 129 -20 159 -9 30 -12 59 -9 64 4 6 1 7 -7 2 -10 -6 -12 -4 -7
8 3 9 2 19 -3 22 -8 5 -54 94 -55 105 0 3 -10 16 -22 30 -13 13 -23 27 -23 32
0 8 -11 21 -83 97 -41 42 -180 141 -199 141 -5 0 -6 5 -2 12 4 6 3 8 -3 5 -13
-8 -94 23 -111 43 -8 8 -11 9 -7 2 5 -10 0 -11 -22 -7 -15 4 -35 9 -43 12 -22
9 -280 19 -280 11z"/>
<path d="M6220 1936 c0 -4 -13 -6 -30 -4 -16 2 -31 0 -33 -5 -1 -5 -19 -9 -39
-10 -21 0 -34 -5 -31 -11 4 -5 -3 -7 -15 -4 -14 4 -20 2 -15 -5 4 -6 -2 -8
-15 -5 -12 4 -20 3 -17 -1 6 -10 -43 -33 -55 -26 -4 3 -11 -2 -14 -11 -4 -10
-12 -14 -23 -10 -10 4 -14 4 -10 0 7 -8 -73 -60 -86 -56 -4 1 -11 -8 -16 -20
-10 -26 -40 -56 -73 -72 -12 -6 -22 -18 -23 -27 -2 -8 -14 -28 -28 -43 -14
-14 -30 -40 -37 -56 -7 -16 -17 -27 -23 -23 -5 3 -7 1 -4 -5 10 -15 -3 -43
-16 -35 -5 3 -7 1 -4 -5 10 -14 -3 -43 -15 -36 -6 4 -7 -2 -3 -16 5 -17 4 -21
-5 -15 -8 5 -11 4 -7 -2 10 -15 -4 -74 -15 -67 -5 3 -6 -5 -2 -20 3 -14 2 -26
-2 -26 -5 0 -9 -15 -10 -32 0 -18 -2 -73 -3 -123 -2 -49 0 -97 3 -105 3 -8 7
-33 8 -55 2 -22 6 -42 9 -45 11 -9 39 -102 33 -111 -3 -5 0 -9 6 -9 6 0 8 -5
5 -10 -3 -6 -1 -10 4 -10 6 0 10 -3 9 -7 -2 -5 13 -30 31 -57 19 -27 29 -46
23 -42 -6 3 14 -19 44 -49 29 -31 53 -61 51 -67 -1 -7 3 -12 8 -13 17 -1 36
-16 30 -25 -3 -5 0 -12 6 -16 8 -5 9 -3 4 6 -5 8 -3 11 6 8 8 -3 13 -11 12
-17 -2 -6 1 -10 6 -8 5 1 17 -7 26 -18 9 -11 13 -13 9 -5 -7 13 -6 13 11 0 11
-8 28 -24 38 -35 10 -11 15 -14 11 -6 -4 9 -2 12 7 9 8 -3 13 -10 12 -16 -2
-6 4 -9 11 -6 8 3 29 -3 48 -12 18 -10 36 -17 41 -16 4 1 7 -3 7 -9 0 -6 7 -9
15 -6 8 4 17 2 20 -4 4 -5 11 -7 16 -4 5 4 15 3 21 -1 7 -5 19 -9 28 -10 134
-20 249 -20 330 1 14 4 33 7 43 7 9 -1 17 3 17 8 0 5 7 7 15 4 8 -4 15 -1 15
6 0 7 6 10 14 7 8 -3 16 -1 18 4 2 5 13 11 26 12 12 0 22 5 22 10 0 4 5 5 10
2 6 -3 10 -1 10 5 0 6 5 8 10 5 6 -3 10 -1 10 5 0 6 5 8 10 5 6 -3 13 1 16 9
3 9 10 13 15 10 5 -3 9 0 9 5 0 6 9 11 20 11 11 0 19 4 17 9 -1 4 16 23 38 42
57 49 112 106 119 124 3 8 10 15 16 15 5 0 10 7 10 16 0 8 5 12 10 9 6 -3 10
3 10 14 0 12 5 21 11 21 5 0 7 4 4 10 -3 6 -2 10 3 10 11 0 43 68 48 104 2 15
9 34 15 42 6 8 8 14 4 14 -5 0 0 9 10 20 10 11 13 20 8 20 -8 0 -8 12 -2 38
11 45 10 287 -2 312 -1 3 -3 10 -4 15 -2 11 -11 36 -26 73 -6 15 -5 22 4 22 7
1 6 5 -4 13 -18 13 -59 93 -59 114 0 7 -5 13 -11 13 -6 0 -9 7 -6 15 4 9 -9
26 -33 45 -22 18 -40 38 -40 46 0 8 -4 14 -9 14 -15 0 -71 53 -71 67 0 7 -3
12 -7 11 -13 -4 -83 48 -75 56 4 4 2 6 -3 5 -16 -5 -55 11 -55 22 0 6 -4 7
-10 4 -5 -3 -10 -1 -10 5 0 6 -4 9 -9 6 -12 -8 -42 4 -36 14 3 5 -5 6 -17 2
-16 -4 -19 -2 -13 8 5 8 4 11 -1 7 -9 -5 -102 13 -154 30 -28 8 -230 8 -230
-1z"/>
</g>
</svg>
